<mxfile host="65bd71144e">
    <diagram id="KjrErTVRP9iZeqJHBAPl" name="Page-1">
        <mxGraphModel dx="354" dy="701" grid="1" gridSize="10" guides="1" tooltips="1" connect="1" arrows="1" fold="1" page="1" pageScale="1" pageWidth="850" pageHeight="1100" math="0" shadow="0">
            <root>
                <mxCell id="0"/>
                <mxCell id="1" parent="0"/>
                <mxCell id="86" style="edgeStyle=none;html=1;exitX=0;exitY=0.5;exitDx=0;exitDy=0;entryX=1;entryY=0.5;entryDx=0;entryDy=0;entryPerimeter=0;endArrow=none;endFill=0;" edge="1" parent="1" source="2" target="80">
                    <mxGeometry relative="1" as="geometry">
                        <Array as="points">
                            <mxPoint x="560" y="434"/>
                        </Array>
                    </mxGeometry>
                </mxCell>
                <mxCell id="87" style="edgeStyle=none;html=1;exitX=1;exitY=0.5;exitDx=0;exitDy=0;entryX=1;entryY=0.115;entryDx=0;entryDy=0;entryPerimeter=0;endArrow=none;endFill=0;" edge="1" parent="1" source="2" target="64">
                    <mxGeometry relative="1" as="geometry">
                        <Array as="points">
                            <mxPoint x="485" y="206"/>
                        </Array>
                    </mxGeometry>
                </mxCell>
                <mxCell id="2" value="" style="pointerEvents=1;verticalLabelPosition=bottom;shadow=0;dashed=0;align=center;html=1;verticalAlign=top;shape=mxgraph.electrical.miscellaneous.batteryStack;flipH=0;flipV=0;rotation=-90;" parent="1" vertex="1">
                    <mxGeometry x="510" y="226" width="100" height="60" as="geometry"/>
                </mxCell>
                <mxCell id="81" style="edgeStyle=none;html=1;exitX=1;exitY=0.57;exitDx=0;exitDy=0;exitPerimeter=0;entryX=0;entryY=0.5;entryDx=0;entryDy=0;entryPerimeter=0;endArrow=none;endFill=0;" edge="1" parent="1" source="4" target="80">
                    <mxGeometry relative="1" as="geometry"/>
                </mxCell>
                <mxCell id="4" value="" style="verticalLabelPosition=bottom;shadow=0;dashed=0;align=center;html=1;verticalAlign=top;shape=mxgraph.electrical.opto_electronics.led_2;pointerEvents=1;direction=south;rotation=-90;" parent="1" vertex="1">
                    <mxGeometry x="310" y="384.01" width="70" height="100" as="geometry"/>
                </mxCell>
                <mxCell id="17" value="+" style="text;html=1;align=center;verticalAlign=middle;resizable=0;points=[];autosize=1;strokeColor=none;fillColor=none;" parent="1" vertex="1">
                    <mxGeometry x="580" y="206" width="20" height="20" as="geometry"/>
                </mxCell>
                <mxCell id="84" style="edgeStyle=none;html=1;exitX=1;exitY=0.5;exitDx=0;exitDy=0;exitPerimeter=0;entryX=0;entryY=0.57;entryDx=0;entryDy=0;entryPerimeter=0;endArrow=none;endFill=0;" edge="1" parent="1" source="82" target="4">
                    <mxGeometry relative="1" as="geometry">
                        <Array as="points">
                            <mxPoint x="250" y="439"/>
                        </Array>
                    </mxGeometry>
                </mxCell>
                <mxCell id="82" value="" style="verticalLabelPosition=bottom;shadow=0;dashed=0;align=center;html=1;verticalAlign=top;shape=mxgraph.electrical.logic_gates.inverter_2;flipH=1;" vertex="1" parent="1">
                    <mxGeometry x="250" y="238" width="100" height="60" as="geometry"/>
                </mxCell>
                <mxCell id="18" value="-" style="text;html=1;align=center;verticalAlign=middle;resizable=0;points=[];autosize=1;strokeColor=none;fillColor=none;" parent="1" vertex="1">
                    <mxGeometry x="570" y="293" width="20" height="20" as="geometry"/>
                </mxCell>
                <mxCell id="22" value="LED1&lt;br&gt;" style="text;html=1;align=center;verticalAlign=middle;resizable=0;points=[];autosize=1;strokeColor=none;fillColor=none;" parent="1" vertex="1">
                    <mxGeometry x="330" y="471.65" width="50" height="20" as="geometry"/>
                </mxCell>
                <mxCell id="23" value="5V" style="text;html=1;align=center;verticalAlign=middle;resizable=0;points=[];autosize=1;strokeColor=none;fillColor=none;" parent="1" vertex="1">
                    <mxGeometry x="600" y="246" width="30" height="20" as="geometry"/>
                </mxCell>
                <mxCell id="24" value="Cole Porter - TEJ3M - Unit #4-10" style="text;html=1;align=center;verticalAlign=middle;resizable=0;points=[];autosize=1;strokeColor=none;fillColor=none;" parent="1" vertex="1">
                    <mxGeometry x="250" y="530" width="190" height="20" as="geometry"/>
                </mxCell>
                <mxCell id="30" value="220 Ω&amp;nbsp;" style="text;html=1;align=center;verticalAlign=middle;resizable=0;points=[];autosize=1;strokeColor=none;fillColor=none;" parent="1" vertex="1">
                    <mxGeometry x="440" y="404.01" width="50" height="20" as="geometry"/>
                </mxCell>
                <mxCell id="40" value="INPUT A" style="text;html=1;align=center;verticalAlign=middle;resizable=0;points=[];autosize=1;strokeColor=none;fillColor=none;" parent="1" vertex="1">
                    <mxGeometry x="395" y="173" width="60" height="20" as="geometry"/>
                </mxCell>
                <mxCell id="83" style="edgeStyle=none;html=1;exitX=0;exitY=0.885;exitDx=0;exitDy=0;exitPerimeter=0;entryX=0;entryY=0.5;entryDx=0;entryDy=0;entryPerimeter=0;endArrow=none;endFill=0;" edge="1" parent="1" source="64" target="82">
                    <mxGeometry relative="1" as="geometry"/>
                </mxCell>
                <mxCell id="85" style="edgeStyle=none;html=1;exitX=1;exitY=0.885;exitDx=0;exitDy=0;exitPerimeter=0;entryX=1;entryY=0.5;entryDx=0;entryDy=0;entryPerimeter=0;endArrow=none;endFill=0;" edge="1" parent="1" source="64" target="80">
                    <mxGeometry relative="1" as="geometry"/>
                </mxCell>
                <mxCell id="64" value="" style="pointerEvents=1;verticalLabelPosition=bottom;shadow=0;dashed=0;align=center;html=1;verticalAlign=top;shape=mxgraph.electrical.electro-mechanical.2-way_switch;rotation=-180;flipH=1;flipV=1;" parent="1" vertex="1">
                    <mxGeometry x="390" y="238" width="95" height="36" as="geometry"/>
                </mxCell>
                <mxCell id="65" style="edgeStyle=none;html=1;exitX=0;exitY=0.885;exitDx=0;exitDy=0;exitPerimeter=0;entryX=0.095;entryY=0.869;entryDx=0;entryDy=0;entryPerimeter=0;endArrow=none;endFill=0;" parent="1" source="64" target="64" edge="1">
                    <mxGeometry relative="1" as="geometry"/>
                </mxCell>
                <mxCell id="68" value="4.7K&amp;nbsp;Ω&amp;nbsp;" style="text;html=1;align=center;verticalAlign=middle;resizable=0;points=[];autosize=1;strokeColor=none;fillColor=none;" parent="1" vertex="1">
                    <mxGeometry x="290" y="193" width="60" height="20" as="geometry"/>
                </mxCell>
                <mxCell id="80" value="" style="pointerEvents=1;verticalLabelPosition=bottom;shadow=0;dashed=0;align=center;html=1;verticalAlign=top;shape=mxgraph.electrical.resistors.resistor_1;" vertex="1" parent="1">
                    <mxGeometry x="410" y="424.01" width="100" height="20" as="geometry"/>
                </mxCell>
                <mxCell id="88" value="" style="shape=image;verticalLabelPosition=bottom;labelBackgroundColor=#ffffff;verticalAlign=top;aspect=fixed;imageAspect=0;image=data:image/png,iVBORw0KGgoAAAANSUhEUgAAAKoAAACMCAIAAABj4aX+AAAcW0lEQVR4nO2da1AU2d3/u6fnfmPuM8wwAwwDjIPcEVRAvCuxgu7qajSurJXS2spuUlupSiXZZKs2VUmldl9odq1dTTTlbpKNIYtrNLhBERAWQUHucoeBGZgrA3OfYa79vDj/hz+PIiqiq9v9ecX09Jw+3d/Tp399OL/vgVEUhXCwCuHbrgDOtwkuP6bB5cc0uPyYBpcf0xAf3NTT0/P864Hz3JBIJCKRCPwNP/jiB8Mwk8lEEOS5VwznmePz+d5///13330XfFzk7ocgqLq6evXq1c+xVjjPiWPHji38uLj8TCYzJibmudQH57lCJpMXfsRDP0yDy49pcPkxDS4/psHlxzS4/JgGlx/TLP7eD0GQ1+utqKgYGRkpKSnZuXMn2FhXVzc+Pr5u3TqNRgNBkMfjaW5ufvvtt8HQ4cGDBw8fPpySkjI5Ofn5559//vnnCwuUSqVlZWXHjx9nsVgLt1sslosXL548eRJ8zM3Nfeedd7KzsykUyqIVs9vtt27d0mq1b7zxBpvNfopzh8xm8507dywWy969eysqKiQSyYYNGzwez61btygUSllZ2X1vyRAERSKRwcHBP//5z19//fXC7ampqQcPHnzttdce/MnyCAaDExMT58+ff/3115OTk0kk0n071NfXa7XagoKCpxmge6j80WjU4XB0dHTAMJydnS0WiyEI8nq9drs9EAhAEGQ2m2/evHnnzp0PPviAxWKFw+GBgYGqqqr169dnZmbu379/3bp1Ho/n/PnzSUlJ+fn5cXFxEomERqMtPMrw8PDVq1cnJiZ++9vfgkMMDAx88803JBIpKytr0YHnSCTidrtnZ2ej0eiyTxvA5XILCgoCgQCCILOzs3Q6PRKJhEIhp9NJo9EWnQdFIBAUCsWxY8e+//3vm0ymCxcu5OXl5ebmSiQSmUxGJD70ej4pRCJRKpUeOXIkLi5u0evg8/kcDsfc3NxTHWWJ78hkMofD8Xg8N2/efPXVVxc2wGAwqNVqh4aGCgsLS0tLKRRKNBqVyWR1dXU9PT0pKSkpKSnJyckOh+P69etqtbqoqEgmk91X/tzc3N27d6enp0tKSrZv385kMiEIiouL+8c//qHX65OTk2EYvnv37t/+9jew/w9/+MOMjIyOjo6qqiq9Xi8SiY4cOeL1ei9evNjf389isUpKSjZu3EilUsH+oVCosbGRRCJpNBoqlTo4ONja2nro0CE2m93a2ur3+3k8ns/n0+v1DAbj3//+N41GI5FIiYmJEATpdLpz58719vaq1epDhw7x+XygAQzDLBZr9erVGo1Gq9U2NDSkp6dv2LCBy+WaTKZLly4Zjcbu7u69e/euWbNmeHi4rq5Oq9Wy2ezCwsKysjIYhuvq6jwej1arHRwcFAgEO3bs2LJlCwRBTU1N169fn5qaSkhI2L59e15ensPhaGlp2bp1ayAQaGhouHXrViAQUKvV+/bt83q9X3zxxejoqMPhoNPpSqVycHCwsrLSaDSmpKS88sorSqVSq9V2dnbq9XqDwXDw4MGcnJwHe6alnv1EIlGlUiUmJg4ODhqNxoV3g9vtNplMEASVlJRQqVQYhhEEUalUYrF4enp6cnJyiWLnmZmZmZiYiImJWbt2LdAegqD4+PjNmzerVKpgMNjX19fQ0MBisRQKhd/vv3PnjsFgoFAoMTExLBaLw+H4/f7Lly9bLBYejxcIBFpbW1tbW8PhMCgKhuHZ2dnx8XGr1erxePr7+9vb22dnZ4PB4ODgoMFgcDqdY2Nj/f39VCqVw+EIBAIWi0UkEo1G49jYGARBMTExra2tTU1Nbrf7kafjdDo7Ozs7OzvFYjGLxRoYGGhvb/f7/aDd19TUTE5OgpNqamqy2+1cLnd6evry5cs2m21qaqqtrS0cDkul0mAweO/evZmZGfCYs1qtd+/e1Wq1DAZDIBC4XK62tjYikcjj8bhcLofDIRKJIyMj1dXVTqdToVDodLr6+nqdTmcymTo6OsbGxiQSCYPBgGF4EYmXPiWhUJiWltbT01NXV3fgwIH5FuDz+Xw+H51OX/ggJ5FILBYLhuGZmZlHiw9BLpcLRVFwDpFIxG63t7S02O32SCTCYDAikQiKokqlsrS0VCgU1tTU1NfXu1wutVpdXFwsEom2bdtmt9tra2uPHDlSVFQ0NjZWU1PT1taWm5sLOmEikRgfH9/b22uxWGg0WiAQSElJAQ3I7/cnJiYKBAK9Xk+n0zMyMjZu3BgXF1dQUOByuTweD4lEKi0tZTAYn376aV9fX35+PofDeeQZEYlEmUz2y1/+kk6nt7a2xsfHb926VaVS9fT0nDp1ymQyCQQCCILIZPLWrVszMzMbGxsvXLgwMzMzOzs7Ozu7a9euvLw8nU6n1+vnGzGINrhc7r59+4RC4fj4uMFgiIuLKy0tTUxMLCkpkUqldXV1ExMT5eXla9euvXLlSm1tbVxcHJFIpFAoGRkZx48ffzB0+H8VXvp8EASJi4tDUbSioqKgoCAUCi198gwGg06nP/IyzUMmk6lUKoFAiEQiNputurp6dHR0fHz88OHD5eXl6enpHA4HzD8YHR297zkXDofNZrPNZpuYmEAQxOfzeb3eSCTi9/sZDAbYRygUzs3NGQwGPp8Pw3BGRsbY2BiVSg2HwywWa363+5BKpXK5XCQSoSianJys1+sf83RIJJJQKCSTyTAMZ2VlTU5Oms3mqampqampYDA4v5tcLpdKpSwWKzY2VigUQhDEZrM5HM7o6KjX6xUKhbm5uQwGY3Z2FoIgAoEgkUicTmdXV5dAIBAKhVu2bFkYZPj9fp/Px2az1Wo1DMM5OTkNDQ12u53BYNBoNIFA8DDtoUfKD0FQTEwMl8vt7+8Hz1EQcCEIgiBIJBKZb6QQBEWjUfBxieP9n2MTiV6vd3Z21u/3c7lctVr9ySefzM3NnTlzhsPhgFjy7NmzN27cQBAkEAgUFBTcVwKKolqt9sMPPySRSDAMc7nczZs3L2wlIpGIy+V6vV6z2RwIBMRi8dDQkNlsJpPJS8xpYDKZIA5YqNnjQCKRxGIxDMMoik5MTHz22Wc1NTUOhyMUChGJxDfffBPsFhMTs7DlwTCcmppqt9s//vjjjo6O7Ozso0ePFhcXz5e5Y8eOy5cvnzlzxm63FxcX//jHP05ISJjviUOhkNfrBfE4BEF0Op3BYID2QafT+Xz+EhV+rEiVw+EUFxe///77CQkJPB4PgiAul8vj8Xp6ekwmk0qlAs8Vj8czNTUVDodB9PRIJBIJh8NxOBwmk4nD4YBCUBSNRqMoiprN5t7eXhqN1t7ezuVy29raqqqq7isBQZA9e/YcP348JSWFQCDMN835HRgMhlQq1Wq109PTbDZbLBb7/f5bt24VFBSIxeKFbXdlCQQC1dXVfD7/3Llz6enpg4ODZ8+eJRAeGmlFo9H169cXFhaGw+HGxsbm5mY+nw/6URRFaTTakSNH3njjjZmZmebm5k8//fS9996blx8ELnQ6HWxxOBygwc2HwEvwWMM+FAoFxJNff/311NQUOGRSUpJAIDhx4oTdbo9Go8Fg8D//+c/w8LBKpYqNjX2cYplMZn5+vsvl+stf/mIwGMDGb7755l//+tfo6Oj8biiKzs3NVVdXT09PL/w5iNKtVuvAwIDT6ezr6zt58uQHH3zgcrkW7sZgMEwmU3d3N4/H43A4DAbD7/eLRKLnNqHB4XC0trZeunTpYW+q0Wj02rVrf/rTn4aHhyEIIpFIbDZ7fkjD4/GcPn26srLSZrNB/9vB0Gi0+VCOSqVSKBSTydTS0hKNRuvr6wkEgkwmu298ZVEe6+6HYZjBYOzcubO1tRUUCsOwQqHYs2fPzZs3d+zYgSAIiqLFxcW7du162Pv6osVmZmayWKzGxsa33nrLarVCEKRQKN58882ioiKBQOD1euvr63ft2qVUKouLi61Wq9/vJxKJJBLp3r17p06d+slPfvKjH/2ooqLi1KlTMAzn5+e/9tpr9z3RJRIJm812OBxJSUkIgvB4PKfTyefzFw4rIQgik8k++eQTt9udnp7+OJVfGjKZnJ+ff/r06b/+9a8ajSYrK2v37t0WiyUSiSx6HbKzs/v7+3/2s5/NzMykpqbu379fJpPpdDoIgmg0WnZ29oULFz788EMej5eXl1deXg6CjDNnzoyOjh49ejQ7O9tms506dep3v/udRCIpLy/PzMzs6+t7ZD0Xn+vX1dWVlpam0+mi0WhcXBwYq4lEIgMDAyiKxsXFcblcCIJCoZDFYmlubgaFqFQqlUq18K4C7zAcDic2Nva+AZ+F+xiNxv7+fvByJRQKV69ezefzCQSCzWYbGhoymUxsNjslJcXhcEgkEj6fb7Vax8bGaDRaZmZmMBgEsT2CIPHx8SkpKfcdCIR+Ho9HpVJRqVSDweD1euVyOZPJ9Pv9oEkplUqTydTV1aVUKoVCocfjAaVFo1GDweDz+RISEu4rFkVRr9c7MDAgkUjEYjGZTHa5XEajkcFgxMXFwTDscrl6e3unpqY4HI5cLodhmE6nSySSiYkJCoUiEomoVKrdbp+YmAB1Hh0d1Wq1brdbLBZrNBqBQOB2u4eHh5OTkyEIGhgY0Ov1VCpVJpNlZGSQyWS73d7R0UEmk1NSUng83vT0dE9Pj8vlEggE6enpfD4fvDrGxMSA8TTA4cOHNRrN/Fy/h8qfmZn5yLaD89Jxn/z4v3wwDS4/psHlxzS4/JgGlx/T4PJjGlx+TIPLj2lw+TENLj+mweXHNLj8mAaXH9Pg8mMaXH5Mg8uPaXD5MQ0uP6bB5cc0uPyYZqmJ3mBeOgzDi2YHPikoiqIo+rDS0P+FQCAsfThQqyVSJuYLBFmCEASBDNSliwXpJY88+sNqvlJX6Tnz0Ivo8Xi++OKLzz77DEy/f3p6enrOnj1bV1e36LdWq/WPf/zjr3/9a4PBsETivtfrraqq+uc//7l0ym0kEunq6tq0aVNCQkJCQsLRo0dbW1uX2D8cDmu12t/85jcdHR1Pmth1586d8+fPNzY2PtGvXhAeeveDeeyhUGjRzIRlEAwGPR7PonYEPp9Pp9ONj4+DxAE+n/+wpAAURf1+v9frXWINGo/H09DQUFVV9fbbb4Pk6pGRkevXr1sslrKysof9KhwOO53OYDD4pKvbBIPBhSl2LxePzvKJRqNGo/G///0vh8Oprq52u915eXmlpaVKpXJkZKSpqSk+Pv6rr75iMpllZWX5+fnRaBTkJOzZs4dEIvX09ExNTZFIpNbW1osXL4IswTVr1izMUXW5XAaDISkpCYKg7u5u4JSxvPMJh8MWi6WhoaGwsHDTpk0goVqhUDQ0NHR2dubn53O53CtXrsjlcrVaTafTBwYGenp6MjIyKioqGhoaIpEI6HsmJycJBMLt27fNZnN5efn69es9Hk93dzedTl+/fn0wGGxvb7fZbEqlsqKioqWlJS8vj81mr127dnnV/rZ4dOiHoqjb7b57925LS4tCoZBKpT09PXfu3JmZmZmcnLx69Wpvb29qaiqFQuns7BweHvZ6vVNTU729vaDbMJvNQ0NDPp9PJBLFxcUpFAoul7vwMRmNRu12u9lszsnJKSwsnJqampmZWXby5dzcnNFodLlcRUVFPB6PQCCABOmEhASQNBMOh+/duzc5OTk3NxeJRMxmc09PTzAYlMvlfD5fLpezWCyj0djY2NjR0REfHy+Tya5fvz42NjY9PT06Ogoyn0Kh0MTExMDAAAzDMplMLpfHxsaCzKeXi8f1ogGmJseOHZubmzt37tzMzAxIpg+Hw/Hx8WVlZWNjY1VVVSMjI4umTorFYplM5na71Wq1Wq1e+NXc3NzMzIzP50tOTmaxWLW1teDj8mybQqGQy+WiUCgsFms+PCQSiSBn22q1LprVxGazN2/e3Nvbu2XLlsTExLGxMRiGpVLp0aNHPR7PH/7wh7GxsYWpUvOIRKKioiImk6lWq1NTU5dR4W+Xx5WfSCSmpaUxmUw6nS4Wi0HXDbJNCwoKKBQKyIJzuVxer/eJauB0OoHRTUtLC4lE0uv1PB5PqVQ+pWvXQggEApVKfZyM13kkEklOTg6wgFAqlQ6H44l+/rLwuPITCASRSIQgyMKwnEAg0Gg04BsTiUTmX7QWEgqFlojko9EosKBpaGgAwTnw1kpPT1+eURaBQCCRSKCQ+coA34lwOHxfyjvYvmj1gP8D2GdhUQAURR/c+DLyVMM+4XDY4XDYbLZoNOp0Op1OZygUAt4WoCmgKGoymXw+38NK8Pl89+7dIxAIFy9e7O7u7u7ubmpqUigUWq0WWJs8KXQ6XSaT+f3+iYmJ+Wjc5/MZjUa73a7RaMATAYR4fr9/dnbW4/E8WI7X67VardFo1OfzWa3WSCQCw3A0GgU/DAQCer3+6Z3lvnWeSv5QKAQ8OIDPG4iDOByO2+3u6ekxGAyzs7O9vb1LCGmz2Ww2G0iKBluoVCqTybRYLGazeRlVIpFIUql03bp1J06cGB4eDgaDoVCopaXlxo0bycnJ8fHxIOrs7++3WCxWq3VkZMThcDxYzvT0dH9/v9frNRqNk5OTCoWCw+EYjcbBwUGz2Wy1Wjs6Op6dOchz46lsCKlUqlgsbmtrO3nypFgsPnjwYGFhIZfLXbNmTVtb2+7du4GbIzBSYDKZ09PTlZWVRCJx8+bNwP9nfHzc7/enpqbOP+kpFEpqamptbW1XV5dKpXoioygAm83es2ePWCz++c9/brFYIAjKysrav3//+vXrEQShUCi7d+8+ffr08ePHV61apVAoYmNjCQQCm832+Xxnzpz5wQ9+EAgEKBTK0NDQunXrotHoL37xi+zs7JiYGKPR+Pe///3QoUNZWVl5eXmgJfF4vM7Ozvr6egiCtm/f/jTX8/mzlL0DGICTSCSRSESn0wErHhRFJycngVlBV1dXZWVleXm50+lksVjJyclCoRCYbI2Pj4+Pj/P5fB6PhyAIn88HYZ3RaNRoNBKJBHTC09PTdrsdeFzNV8Bms5nNZiaTCdzJFtbN4/FcvXrV5XIdOHBgidgQRVGHw9HV1QU6dpFIlJycDFyJIAjy+XzDw8MWi4XNZnO5XBRFFQoFiUTq6+sLBoOxsbGtra2Dg4MZGRlgKDcvL08gEBCJRJvNptVq7XY7OK9IJKJQKEKh0NDQ0NzcXGJiolQqXSlhnhH35fc/9O4HpnjzH9PS0ub/Bs5NwEKHSCSmpqaCN+z5Heh0elpa2sKfADQaDTADnkcoFAJns4UIBAIwXLNsgMvXpk2bFv2WTqdnZWU9uD07OxuCoGAwiCAIlUpVKpX32eUuWjEKhZKbm/s0tf0WWX7nTyaTExIStm3bttBm6FlDJpPVanUgEFgp5+QHQRAEdBUPtsvvHsuXn0qlAu/eFazNIyGTyc/adQZBEOwsYof/vx/T4PJjGlx+TIPLj2lw+TENLj+mweXHNA997x8fH+/r65uenuZyuYmJiaFQqK+vLxqNqlQqNpttNpuNRiOTyQTv/X19fYFAAEzkstlswH0WDPANDQ15vV6ZTCYWi8HiKQiCpKWlEYlErVbrcDjATBCv1zs0NARBEFh3R6/X22w2Ho+XkJAAFkABKyuwWCyTyWQymcAYczQa7evrC4VCiYmJYG2UyclJGo22atUqCIIGBwd9Pl9cXJxIJHI4HFqtlkgkrl69mkAgjI6OulwuiUQilUo9Hg+w0k5LS6NQKDqdbmZmhs/nx8fHBwIBYIycmprKYDAMBoPFYomJiUlKSopEIn19feFwWKlUajSal3SM6KHy63S6a9euDQwMJCQkbNy40e/3V1ZWRiKRbdu2yWSy7u5usGhNaWkpBEGVlZUej6eoqEilUg0PDzc3N7PZ7FdffRWCoKqqKpvNlpeXt3r16snJydraWhKJtG/fPgqFUltbOzk5mZaWtmbNGpvNBuz6X3nllZiYmObm5uHhYaVSuWHDBq/X++WXX0IQtHPnTolE0tnZ2d3dHRsbu2PHjkgkUllZ6ff7S0pKwJpDt2/f5nA4e/bsgSDoypUrs7Oz+fn5Go0GrHBDpVIjkQiRSKypqTEYDOnp6bm5uVarFazKtnfvXhaL1dTUNDo6qlKpioqKXC7XV199BUHQ9773PZFI1N7e3tvbK5PJtm3bFgqFKisrA4HApk2bxGLxSyo/bumMLXBLZ5z/Dy4/psHlxzS4/JgGlx/T4PJjGlx+TIPLj2lWbL35hYA0D5BDSSaTKRTKI90YHhOwiDCCICtVICAajc7NzYF6vowuDcvmmdz9fr//9u3bO3bsSEpK+tWvfgVG1FeEmpqaS5cuTUxMrFSBEASFw2GdTvfTn/60o6NjUfuB7zArf/eDpRsrKireeecduVx+7dq1W7dukclkpVL59IWHQqGlkwaXUWBfX99HH300MDAQCAS+A2l7T8TKyx8IBBwORzgcLigoiI2N1ev1Q0NDOp1OoVAsI2XzmeJ2u5ubm69du7Zq1SqbzbayD5SXgpU/4UAgALLzuVwukUiUy+Vut3t6eho8tl8oSCSSXC7fuHFjUVHRQj8A7LDyt6Pf73c6nWQyGdzrDAYjHA7Pzc29gPmwYFJCSkqKTqfDVMQ3z8q3d5AQv+LF4jwLVl5+Op0O0h/B7R4MBgkEApFIxObt9YKz8vJTKBQ6ne52u71eLzDvYDAYIMN3xY+F85Ss/LOfTCZTqdTZ2dmxsTEajdbX18flcuVyOS7/C8gzufszMjIOHDjw3nvv5eXlTU1NgTmAK34gnKdn5e9+GIZjYmKKi4vFYrHX65VKpXK5/NnlYz89CIJIpdJ333133ogEOzyTcRgEQbhcbkFBwbMofMWBYZhGoz1oRoEFXqxhuEcCvB3mbVpwnpKXTP6X0TnzRQZzw5w4C3m2d7/D4SAQCHQ6faX+2QPGEqhU6kq9RoZCIbfbDZwHJRIJnU7H1Mj/MzzVYDB47ty5L7/80mAwrFSZN27cuHLlik6nW5HSUBSdmpr66KOPNBrNqlWrgGXcipT8svCs5Lfb7R9//PGJEyeWZ875fDCbzQ0NDU6ns729va6u7vr1662trUuvE/IdY+U7/0gkotVqL168GAwGd+/ezefzV/wQK4XT6QwEAsnJyWq12ufzcblcvV6vVqu/k+bdi7Ly8hMIBKFQuH37dhKJVF1d/SIP+LhcrkAgEB8fTyKRmEymWCyemZnB1N2/8p0/DMMcDicnJ0ej0bxo03sWEolEnE6nx+MB6wYhCEKj0YLB4HfAqPnxwVCUuyhYm9x3H9iVH0GQmJgYFosFZveCmenzk5QwAnblhyCIzWZTKBSDwRAKhbxer8Vi4fF4YBEPjIB1+YlE4uDgoF6vHxkZsVqtcrn8ZVyQa9lgqKN7EIlEUlJSotPpcnJyUBQ9c+bMmjVrsPPWBz1T+QkEwuuvv04gEF7YC0ogEBQKxVtvvbVv3z4IguLj45lMJqbmJD5D+WEYfspVGZ4DZDJZLBYvukYfFnjJOv+MjIxgMPiSuqi9gLxk8oN1ZHBWCkxH/ji4/JgGlx/T4PJjGlx+TIPLj2lw+TENLj+mweXHNLj8mAaXH9Pg8mMaXH5Mg8uPaXD5MQ0uP6bB5cc0uPyYZvHJXiMjI5ia8Iod7Hb7//mMPsC3VDGc58Tvf//7ea0XWcMXBzvgz35Mg8uPaXD5MQ0uP6bB5cc0uPyY5n8AF5Nn9ObYQokAAAAASUVORK5CYII=;" vertex="1" parent="1">
                    <mxGeometry x="70" y="411.65" width="170" height="140" as="geometry"/>
                </mxCell>
            </root>
        </mxGraphModel>
    </diagram>
</mxfile>